<?xml version="1.0" encoding="utf-8"?>
<!-- Generator: Adobe Illustrator 27.0.0, SVG Export Plug-In . SVG Version: 6.00 Build 0)  -->
<svg version="1.1" id="Layer_1" xmlns="http://www.w3.org/2000/svg" xmlns:xlink="http://www.w3.org/1999/xlink" x="0px" y="0px"
	 viewBox="0 0 232.26 192.77" style="enable-background:new 0 0 232.26 192.77;" xml:space="preserve">
<style type="text/css">
	.st0{fill-rule:evenodd;clip-rule:evenodd;}
	.st1{fill:#68737A;}
	.st2{fill-rule:evenodd;clip-rule:evenodd;fill:#FCB316;}
</style>
<path class="st0" d="M65.43,73.45c-2.98,3.9-5.11,11.43-1.12,16.74c5.71,5.08,17.31,6.95,17.31,6.95
	c-0.27-6.47,2.09-13.02,2.09-13.02c-10.84-1.28-14.75-4.86-17.59-10.7C65.98,73.12,65.6,73.22,65.43,73.45z"/>
<path class="st0" d="M126.78,109.97c3.2-3.87,7.13-9.43,3.68-16.01c-6.08-4.83-20.33-6.47-20.33-6.47
	c-1.73,7.38-1.09,12.57-1.09,12.57c10.84,1.28,15.84,2.76,17.04,9.81C126.22,110.17,126.6,110.2,126.78,109.97z"/>
<g>
	<path class="st1" d="M116.38,133.9c0,0,4.62,4.4,7.5,5.98c4.46,2.47,9.47,3.71,15.04,3.71c9.74,0,18.36-3.2,25.87-9.59
		c4.46-3.78,8.09-8.4,10.9-13.88l7.41,5.45c-2.96,6.1-6.64,11.17-11.05,15.19c-9.45,8.57-21.32,12.86-35.6,12.86
		c-14.53,0-26.67-4.26-36.4-12.79c-1.51-1.32-2.91-2.71-4.22-4.15C95.83,136.67,105.83,138.08,116.38,133.9z M108.88,118.57
		 M85.6,118.57c-1.61-5.29-2.41-11.04-2.41-17.27c0-15.55,5.09-28.39,15.26-38.51c10.61-10.51,23.83-15.77,39.67-15.77
		c11.77,0,22.16,3.1,31.17,9.3l2.98-6.98h5.6c0.1,8.67,0.77,20.69,2.03,36.04l0.15,1.45h-7.78c-1.65-6.39-4.12-11.94-7.41-16.64
		c-3-4.31-6.78-7.68-11.34-10.1c-4.6-2.47-9.47-3.71-14.61-3.71c-10.42,0-18.68,4.58-24.78,13.73c-4.94,7.36-7.41,17.58-7.41,30.66
		c0,6.43,0.71,12.36,2.14,17.79c0,0-5.28,1.95-13.98,0.86C89.98,118.82,85.6,118.57,85.6,118.57z"/>
</g>
<path class="st2" d="M119.45,30.19c6.99,11.13,15.71,12.85,23.65,15.5c0.53,0.18,0.89,0.27,1.01,0.83c0.21,1.22,0.34,2.56,0.34,3.9
	c3.31,1.7,5.78,3.18,8.78,4.71c1.64,0.84,3.13,1.15,4.87,0.84c1.11-0.24,2.33-0.14,2.91,0.76c1.25,1.92,2.46,3.13,1.7,4.7
	c-0.93,2.48-2.01,5.5-2.86,6.67l-1.68-4.32c-6.78-0.43-7.34-1.22-9.51-3.92c-0.68-1.42-2.37-1.36-2.5-1.34l-5.69,1.42
	c4.83,1.5,9.41,2.49,12.65,8.94l-3.08,4.83c-6.39-5.3-15.59-9.64-33.42-12.11l5.22-9.88c1.54-3.77-0.81-6.23-2.43-8.46
	c-2.23-2.23-2.84-2.94-2.94-5.68C116.15,34.95,117.57,32.01,119.45,30.19z"/>
<path class="st0" d="M60.36,88.68c-3.68-14.01,9.02-23.99,20.8-27.94c10.71-3.59,23.03-3.94,34.29-2.61
	c0.88-1.37,1.44-2.5,2.04-3.79c0.6-1.3,1.55-2.43,1.82-3.83c0.26-1.35-0.43-2.7-1.18-3.83c-0.91-1.36-2.37-2.28-3.35-3.68
	c-6.89-0.09-13.78-0.2-20.66,0.07c-7.46,0.3-14.76,2.57-21.2,6.29c-7.31,4.22-13.68,10.51-16.65,18.57
	C53.71,74.91,55.1,82.74,60.36,88.68L60.36,88.68z"/>
<path class="st0" d="M73.55,132.12c9.31,0.74,19,3.64,28.54,2.98c10.39-0.72,20.73-4.56,28.59-11.45c4.11-3.6,7.49-8.36,7.96-13.89
	c0.45-5.26-1.8-10.24-5.44-14.26c3.72,10.87-5.9,19.04-14.94,22.45c-8.15,3.07-17.5,4.48-26.26,3.3
	c-8.57-1.15-17.62-1.52-26.12-0.43c-9.47,1.21-20.13,6.4-20.61,17.31C52.29,129.32,63.83,131.35,73.55,132.12L73.55,132.12z"/>
</svg>
